<svg width="45" height="20" viewBox="0 0 45 20" fill="none" xmlns="http://www.w3.org/2000/svg">
<g filter="url(#filter0_i_3_1053)">
<rect width="44.4444" height="20" fill="url(#paint0_linear_3_1053)"/>
</g>
<mask id="mask0_3_1053" style="mask-type:alpha" maskUnits="userSpaceOnUse" x="0" y="0" width="45" height="20">
<rect width="44.4444" height="20" fill="url(#paint1_linear_3_1053)"/>
</mask>
<g mask="url(#mask0_3_1053)">
<circle cx="21" cy="1.66665" r="0.111111" fill="url(#paint2_linear_3_1053)"/>
<circle cx="34.8889" cy="2.22222" r="0.444444" fill="url(#paint3_linear_3_1053)"/>
<circle cx="7.00003" cy="2.11111" r="0.111111" fill="url(#paint4_linear_3_1053)"/>
<circle cx="30.6667" cy="2.66668" r="0.222222" fill="url(#paint5_linear_3_1053)"/>
<circle cx="14.8889" cy="3.11113" r="0.444444" fill="url(#paint6_linear_3_1053)"/>
<circle cx="25.3333" cy="3.11111" r="0.222222" fill="url(#paint7_linear_3_1053)"/>
<circle cx="11.1111" cy="3.33334" r="0.222222" fill="url(#paint8_linear_3_1053)"/>
<circle cx="3.5556" cy="4.66668" r="0.222222" fill="url(#paint9_linear_3_1053)"/>
<circle cx="30.6667" cy="9.11112" r="4.66667" fill="url(#paint10_linear_3_1053)"/>
<circle cx="8.55557" cy="4.7778" r="0.111111" fill="url(#paint11_linear_3_1053)"/>
<circle cx="22.5555" cy="5.00002" r="0.333333" fill="url(#paint12_linear_3_1053)"/>
<circle cx="36.1111" cy="4.7778" r="0.111111" fill="url(#paint13_linear_3_1053)"/>
<circle cx="39.4444" cy="5.22222" r="0.333333" fill="url(#paint14_linear_3_1053)"/>
<circle cx="12.5555" cy="6.77779" r="0.333333" fill="url(#paint15_linear_3_1053)"/>
<path d="M-0.888916 12.1113V15.4447L0.999973 24.2224C4.37034 25.4447 11.3555 27.9558 12.3333 28.2224C13.5555 28.5558 24.3333 30.3336 24.8889 30.5558C25.3333 30.7336 40.5555 25.1484 48.1111 22.3336L45.6666 13.0002L35.8889 11.4447L26.1111 10.5558L22.4444 11.0002L16.7778 9.11133L-0.888916 12.1113Z" fill="url(#paint16_linear_3_1053)"/>
<path d="M9.22219 14.6669L5.11108 20.778L25.7778 21.3336L21 16.3336H20.4444L18.1111 12.778H17L14 8.44467L10.6666 14.6669H9.22219Z" fill="url(#paint17_linear_3_1053)"/>
<path d="M23.2222 14.2224L19.1111 20.3335L39.7778 20.8891L35 15.8891H34.4444L32.1111 12.3335H31L28 8.00021L24.6666 14.2224H23.2222Z" fill="url(#paint18_linear_3_1053)"/>
<path d="M32.8615 15.7244L27.7778 23.3106L53.3334 24.0002L47.4254 17.7933H46.7384L43.8531 13.3795H42.4791L38.7695 8.00021L34.6476 15.7244H32.8615Z" fill="url(#paint19_linear_3_1053)"/>
<path d="M-1.13854 14.613L-6.22217 22.1992L19.3334 22.8889L13.4254 16.682H12.7384L9.8531 12.2682H8.47915L4.76947 6.88889L0.647605 14.613H-1.13854Z" fill="url(#paint20_linear_3_1053)"/>
<circle cx="8.00005" cy="7.55554" r="0.222222" fill="url(#paint21_linear_3_1053)"/>
<circle cx="21.2222" cy="8.77779" r="0.333333" fill="url(#paint22_linear_3_1053)"/>
<path d="M4.66942 14.6976C4.69568 14.5824 4.85982 14.5824 4.88608 14.6976L6.19018 20.4198C6.20603 20.4893 6.15317 20.5556 6.08184 20.5556H3.47366C3.40233 20.5556 3.34947 20.4893 3.36532 20.4198L4.66942 14.6976Z" fill="url(#paint23_linear_3_1053)"/>
<path d="M38.0028 14.6976C38.0291 14.5824 38.1932 14.5824 38.2195 14.6976L39.5236 20.4198C39.5394 20.4893 39.4865 20.5556 39.4152 20.5556H36.807C36.7357 20.5556 36.6828 20.4893 36.6987 20.4198L38.0028 14.6976Z" fill="url(#paint24_linear_3_1053)"/>
<path d="M17.1139 15.3642C17.1401 15.249 17.3043 15.249 17.3305 15.3642L18.6346 21.0864C18.6505 21.156 18.5976 21.2222 18.5263 21.2222H15.9181C15.8468 21.2222 15.7939 21.156 15.8098 21.0864L17.1139 15.3642Z" fill="url(#paint25_linear_3_1053)"/>
<path d="M39.7805 15.3642C39.8068 15.249 39.9709 15.249 39.9972 15.3642L41.3013 21.0864C41.3171 21.156 41.2643 21.2222 41.1929 21.2222H38.5847C38.5134 21.2222 38.4606 21.156 38.4764 21.0864L39.7805 15.3642Z" fill="url(#paint26_linear_3_1053)"/>
<path d="M8.89098 15.663C8.91457 15.5436 9.0854 15.5436 9.10899 15.663L10.2247 21.3118C10.2383 21.3805 10.1857 21.4444 10.1157 21.4444H7.88426C7.81426 21.4444 7.76169 21.3805 7.77526 21.3118L8.89098 15.663Z" fill="url(#paint27_linear_3_1053)"/>
<path d="M34.4472 15.5865C34.4735 15.4712 34.6377 15.4712 34.6639 15.5865L35.968 21.3086C35.9839 21.3782 35.931 21.4444 35.8597 21.4444H33.2515C33.1802 21.4444 33.1273 21.3782 33.1432 21.3086L34.4472 15.5865Z" fill="url(#paint28_linear_3_1053)"/>
<path d="M30.8917 15.8087C30.918 15.6934 31.0821 15.6934 31.1084 15.8087L32.4125 21.5308C32.4283 21.6004 32.3755 21.6666 32.3041 21.6666H29.6959C29.6246 21.6666 29.5718 21.6004 29.5876 21.5308L30.8917 15.8087Z" fill="url(#paint29_linear_3_1053)"/>
<path d="M12.6694 16.0309C12.6957 15.9157 12.8598 15.9157 12.8861 16.0309L14.1902 21.7531C14.206 21.8226 14.1532 21.8889 14.0818 21.8889H11.4737C11.4023 21.8889 11.3495 21.8226 11.3653 21.7531L12.6694 16.0309Z" fill="url(#paint30_linear_3_1053)"/>
<path d="M23.3362 16.0309C23.3624 15.9157 23.5266 15.9157 23.5528 16.0309L24.8569 21.7531C24.8728 21.8226 24.8199 21.8889 24.7486 21.8889H22.1404C22.0691 21.8889 22.0162 21.8226 22.0321 21.7531L23.3362 16.0309Z" fill="url(#paint31_linear_3_1053)"/>
<path d="M6.22496 16.2531C6.25122 16.1379 6.41537 16.1379 6.44163 16.2531L7.74572 21.9753C7.76157 22.0449 7.70872 22.1111 7.63739 22.1111H5.0292C4.95787 22.1111 4.90502 22.0449 4.92087 21.9753L6.22496 16.2531Z" fill="url(#paint32_linear_3_1053)"/>
<path d="M14.225 16.2531C14.2512 16.1379 14.4154 16.1379 14.4416 16.2531L15.7457 21.9753C15.7616 22.0449 15.7087 22.1111 15.6374 22.1111H13.0292C12.9579 22.1111 12.905 22.0449 12.9209 21.9753L14.225 16.2531Z" fill="url(#paint33_linear_3_1053)"/>
<path d="M19.3362 16.2531C19.3624 16.1379 19.5266 16.1379 19.5528 16.2531L20.8569 21.9753C20.8728 22.0449 20.8199 22.1111 20.7486 22.1111H18.1404C18.0691 22.1111 18.0162 22.0449 18.0321 21.9753L19.3362 16.2531Z" fill="url(#paint34_linear_3_1053)"/>
<path d="M27.3362 16.2531C27.3624 16.1379 27.5266 16.1379 27.5528 16.2531L28.8569 21.9753C28.8728 22.0449 28.8199 22.1111 28.7486 22.1111H26.1404C26.0691 22.1111 26.0162 22.0449 26.0321 21.9753L27.3362 16.2531Z" fill="url(#paint35_linear_3_1053)"/>
<path d="M36.225 16.2531C36.2512 16.1379 36.4154 16.1379 36.4416 16.2531L37.7457 21.9753C37.7616 22.0449 37.7087 22.1111 37.6374 22.1111H35.0292C34.9579 22.1111 34.905 22.0449 34.9209 21.9753L36.225 16.2531Z" fill="url(#paint36_linear_3_1053)"/>
<path d="M7.33544 16.7741C7.35903 16.6547 7.52986 16.6547 7.55345 16.7741L8.66917 22.4229C8.68274 22.4916 8.63017 22.5556 8.56017 22.5556H6.32872C6.25871 22.5556 6.20615 22.4916 6.21972 22.4229L7.33544 16.7741Z" fill="url(#paint37_linear_3_1053)"/>
<path d="M10.6694 16.6976C10.6957 16.5824 10.8598 16.5824 10.8861 16.6976L12.1902 22.4198C12.206 22.4893 12.1532 22.5556 12.0818 22.5556H9.47366C9.40233 22.5556 9.34947 22.4893 9.36532 22.4198L10.6694 16.6976Z" fill="url(#paint38_linear_3_1053)"/>
<path d="M15.7805 16.6976C15.8068 16.5824 15.9709 16.5824 15.9972 16.6976L17.3013 22.4198C17.3171 22.4893 17.2643 22.5556 17.1929 22.5556H14.5847C14.5134 22.5556 14.4606 22.4893 14.4764 22.4198L15.7805 16.6976Z" fill="url(#paint39_linear_3_1053)"/>
<path d="M32.6694 16.6976C32.6957 16.5824 32.8598 16.5824 32.8861 16.6976L34.1902 22.4198C34.206 22.4893 34.1532 22.5556 34.0818 22.5556H31.4737C31.4023 22.5556 31.3495 22.4893 31.3653 22.4198L32.6694 16.6976Z" fill="url(#paint40_linear_3_1053)"/>
<path d="M21.3362 17.142C21.3624 17.0268 21.5266 17.0268 21.5528 17.142L22.8569 22.8642C22.8728 22.9338 22.8199 23 22.7486 23H20.1404C20.0691 23 20.0162 22.9338 20.0321 22.8642L21.3362 17.142Z" fill="url(#paint41_linear_3_1053)"/>
<path d="M24.6694 17.142C24.6957 17.0268 24.8598 17.0268 24.8861 17.142L26.1902 22.8642C26.206 22.9338 26.1532 23 26.0818 23H23.4737C23.4023 23 23.3495 22.9338 23.3653 22.8642L24.6694 17.142Z" fill="url(#paint42_linear_3_1053)"/>
<path d="M29.1139 17.142C29.1401 17.0268 29.3043 17.0268 29.3305 17.142L30.6346 22.8642C30.6505 22.9338 30.5976 23 30.5263 23H27.9181C27.8468 23 27.7939 22.9338 27.8098 22.8642L29.1139 17.142Z" fill="url(#paint43_linear_3_1053)"/>
<path d="M25.7805 17.5865C25.8068 17.4712 25.9709 17.4712 25.9972 17.5865L27.3013 23.3086C27.3171 23.3782 27.2643 23.4444 27.1929 23.4444H24.5847C24.5134 23.4444 24.4606 23.3782 24.4764 23.3086L25.7805 17.5865Z" fill="url(#paint44_linear_3_1053)"/>
</g>
<defs>
<filter id="filter0_i_3_1053" x="0" y="0" width="44.4445" height="21.3333" filterUnits="userSpaceOnUse" color-interpolation-filters="sRGB">
<feFlood flood-opacity="0" result="BackgroundImageFix"/>
<feBlend mode="normal" in="SourceGraphic" in2="BackgroundImageFix" result="shape"/>
<feColorMatrix in="SourceAlpha" type="matrix" values="0 0 0 0 0 0 0 0 0 0 0 0 0 0 0 0 0 0 127 0" result="hardAlpha"/>
<feMorphology radius="0.666667" operator="erode" in="SourceAlpha" result="effect1_innerShadow_3_1053"/>
<feOffset dy="1.33333"/>
<feGaussianBlur stdDeviation="0.888889"/>
<feComposite in2="hardAlpha" operator="arithmetic" k2="-1" k3="1"/>
<feColorMatrix type="matrix" values="0 0 0 0 0 0 0 0 0 0 0 0 0 0 0 0 0 0 0.35 0"/>
<feBlend mode="normal" in2="shape" result="effect1_innerShadow_3_1053"/>
</filter>
<linearGradient id="paint0_linear_3_1053" x1="22.2222" y1="0" x2="22.2222" y2="20" gradientUnits="userSpaceOnUse">
<stop stop-color="#364BBA"/>
<stop offset="1" stop-color="#A979D9"/>
</linearGradient>
<linearGradient id="paint1_linear_3_1053" x1="22.2222" y1="0" x2="22.2222" y2="20" gradientUnits="userSpaceOnUse">
<stop stop-color="#ABFAFF"/>
<stop offset="1" stop-color="#D5FFAB"/>
</linearGradient>
<linearGradient id="paint2_linear_3_1053" x1="21" y1="1.55554" x2="21" y2="1.77776" gradientUnits="userSpaceOnUse">
<stop stop-color="#FFFEDA"/>
<stop offset="1" stop-color="#FFFEDA" stop-opacity="0.59"/>
</linearGradient>
<linearGradient id="paint3_linear_3_1053" x1="34.8889" y1="1.77777" x2="34.8889" y2="2.66666" gradientUnits="userSpaceOnUse">
<stop stop-color="#FFFEDA"/>
<stop offset="1" stop-color="#FFFEDA" stop-opacity="0.59"/>
</linearGradient>
<linearGradient id="paint4_linear_3_1053" x1="7.00003" y1="2" x2="7.00003" y2="2.22222" gradientUnits="userSpaceOnUse">
<stop stop-color="#FFFEDA"/>
<stop offset="1" stop-color="#FFFEDA" stop-opacity="0.59"/>
</linearGradient>
<linearGradient id="paint5_linear_3_1053" x1="30.6667" y1="2.44446" x2="30.6667" y2="2.8889" gradientUnits="userSpaceOnUse">
<stop stop-color="#FFFEDA"/>
<stop offset="1" stop-color="#FFFEDA" stop-opacity="0.59"/>
</linearGradient>
<linearGradient id="paint6_linear_3_1053" x1="14.8889" y1="2.66669" x2="14.8889" y2="3.55558" gradientUnits="userSpaceOnUse">
<stop stop-color="#FFFEDA"/>
<stop offset="1" stop-color="#FFFEDA" stop-opacity="0.59"/>
</linearGradient>
<linearGradient id="paint7_linear_3_1053" x1="25.3333" y1="2.88889" x2="25.3333" y2="3.33333" gradientUnits="userSpaceOnUse">
<stop stop-color="#FFFEDA"/>
<stop offset="1" stop-color="#FFFEDA" stop-opacity="0.59"/>
</linearGradient>
<linearGradient id="paint8_linear_3_1053" x1="11.1111" y1="3.11111" x2="11.1111" y2="3.55556" gradientUnits="userSpaceOnUse">
<stop stop-color="#FFFEDA"/>
<stop offset="1" stop-color="#FFFEDA" stop-opacity="0.59"/>
</linearGradient>
<linearGradient id="paint9_linear_3_1053" x1="3.5556" y1="4.44446" x2="3.5556" y2="4.8889" gradientUnits="userSpaceOnUse">
<stop stop-color="#FFFEDA"/>
<stop offset="1" stop-color="#FFFEDA" stop-opacity="0.59"/>
</linearGradient>
<linearGradient id="paint10_linear_3_1053" x1="30.6667" y1="3.44446" x2="30.6667" y2="13.7778" gradientUnits="userSpaceOnUse">
<stop offset="0.261829" stop-color="#A5C5EB"/>
<stop offset="0.699362" stop-color="#51EAFF" stop-opacity="0"/>
</linearGradient>
<linearGradient id="paint11_linear_3_1053" x1="8.55557" y1="4.66669" x2="8.55557" y2="4.88891" gradientUnits="userSpaceOnUse">
<stop stop-color="#FFFEDA"/>
<stop offset="1" stop-color="#FFFEDA" stop-opacity="0.59"/>
</linearGradient>
<linearGradient id="paint12_linear_3_1053" x1="22.5555" y1="4.66669" x2="22.5555" y2="5.33335" gradientUnits="userSpaceOnUse">
<stop stop-color="#FFFEDA"/>
<stop offset="1" stop-color="#FFFEDA" stop-opacity="0.59"/>
</linearGradient>
<linearGradient id="paint13_linear_3_1053" x1="36.1111" y1="4.66669" x2="36.1111" y2="4.88891" gradientUnits="userSpaceOnUse">
<stop stop-color="#FFFEDA"/>
<stop offset="1" stop-color="#FFFEDA" stop-opacity="0.59"/>
</linearGradient>
<linearGradient id="paint14_linear_3_1053" x1="39.4444" y1="4.88889" x2="39.4444" y2="5.55555" gradientUnits="userSpaceOnUse">
<stop stop-color="#FFFEDA"/>
<stop offset="1" stop-color="#FFFEDA" stop-opacity="0.59"/>
</linearGradient>
<linearGradient id="paint15_linear_3_1053" x1="12.5555" y1="6.44446" x2="12.5555" y2="7.11112" gradientUnits="userSpaceOnUse">
<stop stop-color="#FFFEDA"/>
<stop offset="1" stop-color="#FFFEDA" stop-opacity="0.59"/>
</linearGradient>
<linearGradient id="paint16_linear_3_1053" x1="23.6111" y1="9.11133" x2="23.6111" y2="30.5599" gradientUnits="userSpaceOnUse">
<stop stop-color="#6A86EB"/>
<stop offset="0.553516" stop-color="#010203"/>
</linearGradient>
<linearGradient id="paint17_linear_3_1053" x1="15.4444" y1="8.44467" x2="15.4444" y2="21.3336" gradientUnits="userSpaceOnUse">
<stop offset="0.290234" stop-color="#6783CA"/>
<stop offset="1" stop-color="#271B59"/>
</linearGradient>
<linearGradient id="paint18_linear_3_1053" x1="29.4444" y1="8.00021" x2="29.4444" y2="20.8891" gradientUnits="userSpaceOnUse">
<stop offset="0.290234" stop-color="#6783CA"/>
<stop offset="1" stop-color="#271B59"/>
</linearGradient>
<linearGradient id="paint19_linear_3_1053" x1="40.5556" y1="8.00021" x2="40.5556" y2="24.0002" gradientUnits="userSpaceOnUse">
<stop offset="0.290234" stop-color="#6783CA"/>
<stop offset="1" stop-color="#271B59"/>
</linearGradient>
<linearGradient id="paint20_linear_3_1053" x1="6.55561" y1="6.88889" x2="6.55561" y2="22.8889" gradientUnits="userSpaceOnUse">
<stop offset="0.290234" stop-color="#6783CA"/>
<stop offset="1" stop-color="#271B59"/>
</linearGradient>
<linearGradient id="paint21_linear_3_1053" x1="8.00005" y1="7.33331" x2="8.00005" y2="7.77776" gradientUnits="userSpaceOnUse">
<stop stop-color="#FFFEDA"/>
<stop offset="1" stop-color="#FFFEDA" stop-opacity="0.59"/>
</linearGradient>
<linearGradient id="paint22_linear_3_1053" x1="21.2222" y1="8.44446" x2="21.2222" y2="9.11112" gradientUnits="userSpaceOnUse">
<stop stop-color="#FFFEDA"/>
<stop offset="1" stop-color="#FFFEDA" stop-opacity="0.59"/>
</linearGradient>
<linearGradient id="paint23_linear_3_1053" x1="4.77775" y1="14.2222" x2="4.77775" y2="22.6667" gradientUnits="userSpaceOnUse">
<stop stop-color="#111F51"/>
<stop offset="1" stop-color="#83459F" stop-opacity="0"/>
</linearGradient>
<linearGradient id="paint24_linear_3_1053" x1="38.1111" y1="14.2222" x2="38.1111" y2="22.6667" gradientUnits="userSpaceOnUse">
<stop stop-color="#111F51"/>
<stop offset="1" stop-color="#83459F" stop-opacity="0"/>
</linearGradient>
<linearGradient id="paint25_linear_3_1053" x1="17.2222" y1="14.8889" x2="17.2222" y2="23.3333" gradientUnits="userSpaceOnUse">
<stop stop-color="#111F51"/>
<stop offset="1" stop-color="#83459F" stop-opacity="0"/>
</linearGradient>
<linearGradient id="paint26_linear_3_1053" x1="39.8888" y1="14.8889" x2="39.8888" y2="23.3333" gradientUnits="userSpaceOnUse">
<stop stop-color="#111F51"/>
<stop offset="1" stop-color="#83459F" stop-opacity="0"/>
</linearGradient>
<linearGradient id="paint27_linear_3_1053" x1="8.99999" y1="15.1111" x2="8.99999" y2="23.5556" gradientUnits="userSpaceOnUse">
<stop stop-color="#111F51"/>
<stop offset="1" stop-color="#83459F" stop-opacity="0"/>
</linearGradient>
<linearGradient id="paint28_linear_3_1053" x1="34.5556" y1="15.1111" x2="34.5556" y2="23.5556" gradientUnits="userSpaceOnUse">
<stop stop-color="#111F51"/>
<stop offset="1" stop-color="#83459F" stop-opacity="0"/>
</linearGradient>
<linearGradient id="paint29_linear_3_1053" x1="31" y1="15.3333" x2="31" y2="23.7778" gradientUnits="userSpaceOnUse">
<stop stop-color="#111F51"/>
<stop offset="1" stop-color="#83459F" stop-opacity="0"/>
</linearGradient>
<linearGradient id="paint30_linear_3_1053" x1="12.7778" y1="15.5555" x2="12.7778" y2="24" gradientUnits="userSpaceOnUse">
<stop stop-color="#111F51"/>
<stop offset="1" stop-color="#83459F" stop-opacity="0"/>
</linearGradient>
<linearGradient id="paint31_linear_3_1053" x1="23.4445" y1="15.5555" x2="23.4445" y2="24" gradientUnits="userSpaceOnUse">
<stop stop-color="#111F51"/>
<stop offset="1" stop-color="#83459F" stop-opacity="0"/>
</linearGradient>
<linearGradient id="paint32_linear_3_1053" x1="6.33329" y1="15.7778" x2="6.33329" y2="24.2222" gradientUnits="userSpaceOnUse">
<stop stop-color="#111F51"/>
<stop offset="1" stop-color="#83459F" stop-opacity="0"/>
</linearGradient>
<linearGradient id="paint33_linear_3_1053" x1="14.3333" y1="15.7778" x2="14.3333" y2="24.2222" gradientUnits="userSpaceOnUse">
<stop stop-color="#111F51"/>
<stop offset="1" stop-color="#83459F" stop-opacity="0"/>
</linearGradient>
<linearGradient id="paint34_linear_3_1053" x1="19.4445" y1="15.7778" x2="19.4445" y2="24.2222" gradientUnits="userSpaceOnUse">
<stop stop-color="#111F51"/>
<stop offset="1" stop-color="#83459F" stop-opacity="0"/>
</linearGradient>
<linearGradient id="paint35_linear_3_1053" x1="27.4445" y1="15.7778" x2="27.4445" y2="24.2222" gradientUnits="userSpaceOnUse">
<stop stop-color="#111F51"/>
<stop offset="1" stop-color="#83459F" stop-opacity="0"/>
</linearGradient>
<linearGradient id="paint36_linear_3_1053" x1="36.3333" y1="15.7778" x2="36.3333" y2="24.2222" gradientUnits="userSpaceOnUse">
<stop stop-color="#111F51"/>
<stop offset="1" stop-color="#83459F" stop-opacity="0"/>
</linearGradient>
<linearGradient id="paint37_linear_3_1053" x1="7.44444" y1="16.2222" x2="7.44444" y2="24.6667" gradientUnits="userSpaceOnUse">
<stop stop-color="#111F51"/>
<stop offset="1" stop-color="#83459F" stop-opacity="0"/>
</linearGradient>
<linearGradient id="paint38_linear_3_1053" x1="10.7778" y1="16.2222" x2="10.7778" y2="24.6667" gradientUnits="userSpaceOnUse">
<stop stop-color="#111F51"/>
<stop offset="1" stop-color="#83459F" stop-opacity="0"/>
</linearGradient>
<linearGradient id="paint39_linear_3_1053" x1="15.8888" y1="16.2222" x2="15.8888" y2="24.6667" gradientUnits="userSpaceOnUse">
<stop stop-color="#111F51"/>
<stop offset="1" stop-color="#83459F" stop-opacity="0"/>
</linearGradient>
<linearGradient id="paint40_linear_3_1053" x1="32.7778" y1="16.2222" x2="32.7778" y2="24.6667" gradientUnits="userSpaceOnUse">
<stop stop-color="#111F51"/>
<stop offset="1" stop-color="#83459F" stop-opacity="0"/>
</linearGradient>
<linearGradient id="paint41_linear_3_1053" x1="21.4445" y1="16.6667" x2="21.4445" y2="25.1111" gradientUnits="userSpaceOnUse">
<stop stop-color="#111F51"/>
<stop offset="1" stop-color="#83459F" stop-opacity="0"/>
</linearGradient>
<linearGradient id="paint42_linear_3_1053" x1="24.7778" y1="16.6667" x2="24.7778" y2="25.1111" gradientUnits="userSpaceOnUse">
<stop stop-color="#111F51"/>
<stop offset="1" stop-color="#83459F" stop-opacity="0"/>
</linearGradient>
<linearGradient id="paint43_linear_3_1053" x1="29.2222" y1="16.6667" x2="29.2222" y2="25.1111" gradientUnits="userSpaceOnUse">
<stop stop-color="#111F51"/>
<stop offset="1" stop-color="#83459F" stop-opacity="0"/>
</linearGradient>
<linearGradient id="paint44_linear_3_1053" x1="25.8888" y1="17.1111" x2="25.8888" y2="25.5556" gradientUnits="userSpaceOnUse">
<stop stop-color="#111F51"/>
<stop offset="1" stop-color="#83459F" stop-opacity="0"/>
</linearGradient>
</defs>
</svg>
