<svg width="306" height="306" viewBox="0 0 306 306" fill="none" xmlns="http://www.w3.org/2000/svg">
<circle cx="151.088" cy="153.819" r="95.8982" fill="#171717"/>
<circle cx="61.2007" cy="89.0676" r="6.01071" fill="url(#paint0_linear_513_6950)"/>
<circle cx="216.659" cy="65.298" r="11.2018" fill="url(#paint1_linear_513_6950)"/>
<circle cx="63.1129" cy="215.566" r="10.6554" fill="url(#paint2_linear_513_6950)"/>
<circle cx="253.816" cy="205.184" r="10.6554" fill="url(#paint3_linear_513_6950)"/>
<circle cx="233.052" cy="217.205" r="5.19107" fill="url(#paint4_linear_513_6950)"/>
<path d="M167.093 72.9681C166.776 72.9008 166.776 72.4486 167.093 72.3813L171.883 71.3627C171.998 71.3382 172.088 71.2482 172.113 71.1328L173.145 66.3768C173.213 66.0615 173.663 66.0615 173.731 66.3768L174.762 71.1328C174.787 71.2482 174.878 71.3382 174.993 71.3627L179.783 72.3813C180.1 72.4486 180.1 72.9008 179.783 72.9681L174.993 73.9867C174.878 74.0113 174.787 74.1012 174.762 74.2166L173.731 78.9726C173.663 79.2879 173.213 79.2879 173.145 78.9726L172.113 74.2166C172.088 74.1012 171.998 74.0113 171.883 73.9867L167.093 72.9681Z" fill="#B1B1BA"/>
<path d="M50.3938 157.711C50.5161 157.133 51.3407 157.133 51.463 157.711L53.2896 166.341C53.3341 166.551 53.4978 166.716 53.7078 166.761L62.2483 168.622C62.8217 168.747 62.8217 169.565 62.2483 169.69L53.7078 171.55C53.4978 171.596 53.3341 171.761 53.2896 171.971L51.463 180.6C51.3407 181.178 50.5161 181.178 50.3938 180.6L48.5672 171.971C48.5227 171.761 48.359 171.596 48.1489 171.55L39.6085 169.69C39.035 169.565 39.035 168.747 39.6085 168.622L48.1489 166.761C48.359 166.716 48.5227 166.551 48.5672 166.341L50.3938 157.711Z" fill="#B1B1BA"/>
<path d="M236.793 91.5932C236.915 91.0155 237.739 91.0155 237.862 91.5932L238.927 96.6275C238.972 96.8378 239.136 97.0024 239.346 97.0482L244.342 98.1367C244.916 98.2616 244.916 99.0796 244.342 99.2045L239.346 100.293C239.136 100.339 238.972 100.503 238.927 100.714L237.862 105.748C237.739 106.326 236.915 106.326 236.793 105.748L235.727 100.714C235.682 100.503 235.519 100.339 235.309 100.293L230.312 99.2045C229.739 99.0796 229.739 98.2616 230.312 98.1367L235.309 97.0482C235.519 97.0024 235.682 96.8378 235.727 96.6275L236.793 91.5932Z" fill="#B1B1BA"/>
<path d="M258.821 172.306L260.495 180.211L268.287 181.909L260.495 183.606L258.821 191.512L257.148 183.606L249.355 181.909L257.148 180.211L258.821 172.306Z" fill="url(#paint5_linear_513_6950)"/>
<path d="M108.034 114.622C111.293 116.04 113.642 117.269 115.263 118.353C116.909 119.454 117.688 120.328 117.98 120.991C118.225 121.547 118.164 122.03 117.76 122.613C117.31 123.262 116.472 123.96 115.258 124.746C114.06 125.522 112.604 126.318 110.995 127.2C109.401 128.074 107.673 129.024 105.991 130.088C102.646 132.204 99.3503 134.844 97.547 138.415C95.7299 142.013 95.7562 146.185 96.2898 150.058C96.5581 152.005 96.9603 153.916 97.3458 155.677C97.7351 157.456 98.1009 159.06 98.3174 160.459C98.5369 161.878 98.5772 162.945 98.4003 163.681C98.3159 164.032 98.1922 164.265 98.0505 164.423C97.9147 164.575 97.7184 164.707 97.4045 164.793C96.725 164.978 95.5537 164.925 93.6224 164.345C91.7345 163.778 89.2534 162.748 86.024 161.15C77.2588 155.012 71.194 148.747 68.1229 142.468C65.0698 136.225 64.9523 129.931 68.1611 123.576C74.55 110.925 92.291 106.673 107.983 114.598L108.009 114.61L108.034 114.622Z" fill="url(#paint6_linear_513_6950)" stroke="#B1B1BA" stroke-width="2"/>
<path d="M32.0926 110.399L32.7459 110.345C45.8094 109.264 58.884 112.295 70.1399 119.012" stroke="#B1B1BA" stroke-width="2"/>
<path d="M28.1189 117.858L29.2083 117.764C42.1207 116.654 55.0597 119.574 66.243 126.124" stroke="#B1B1BA" stroke-width="2"/>
<path d="M123.723 118.837C133.45 124.383 137.38 130.082 138.136 136.036C138.905 142.094 136.44 148.694 132.673 156.153C128.922 163.58 124.674 169.62 119.131 172.664C113.679 175.66 106.758 175.864 97.3548 171.116C85.2665 165.012 81.0707 148.385 88.4295 133.812C95.7834 119.248 111.638 112.753 123.723 118.837Z" fill="url(#paint7_linear_513_6950)" stroke="#B1B1BA" stroke-width="2"/>
<ellipse cx="116.027" cy="147.673" rx="20.8944" ry="28.7535" transform="rotate(-155.936 116.027 147.673)" fill="url(#paint8_linear_513_6950)"/>
<path d="M129.239 121.622C134.429 124.243 137.77 129.485 138.89 135.977C140.01 142.469 138.889 150.142 135.208 157.433C131.526 164.724 126.016 170.181 120.127 173.133C114.238 176.086 108.036 176.51 102.846 173.888C97.6547 171.267 94.3145 166.025 93.1943 159.533C92.0741 153.041 93.1948 145.368 96.8763 138.077C100.558 130.786 106.068 125.329 111.957 122.377C117.846 119.424 124.048 119 129.239 121.622Z" fill="url(#paint9_linear_513_6950)" stroke="#B1B1BA" stroke-width="2"/>
<path d="M120.63 144.708C118.749 143.758 117.945 141.223 119.09 138.956C120.235 136.689 122.752 135.831 124.633 136.781C126.514 137.731 127.317 140.266 126.172 142.533C125.028 144.8 122.511 145.658 120.63 144.708Z" fill="#B1B1BA" stroke="#B1B1BA" stroke-width="2"/>
<path d="M112.527 160.753C110.646 159.803 109.842 157.268 110.987 155.001C112.132 152.734 114.649 151.875 116.53 152.825C118.411 153.775 119.214 156.31 118.069 158.577C116.925 160.844 114.408 161.702 112.527 160.753Z" fill="#B1B1BA" stroke="#B1B1BA" stroke-width="2"/>
<path d="M203.182 209.168C200.319 211.107 198.053 212.338 196.257 213.006C194.453 213.677 193.23 213.739 192.389 213.492C191.589 213.257 190.968 212.693 190.46 211.701C189.94 210.683 189.58 209.286 189.307 207.54C189.036 205.803 188.863 203.807 188.676 201.616C188.49 199.438 188.291 197.082 187.967 194.68C187.32 189.881 186.163 184.803 183.533 180.388C180.905 175.975 176.995 172.51 173.088 169.619C171.132 168.171 169.157 166.853 167.332 165.632C165.496 164.405 163.824 163.284 162.426 162.203C161.021 161.116 159.962 160.123 159.313 159.174C158.68 158.247 158.482 157.435 158.655 156.633C158.836 155.792 159.467 154.768 160.911 153.534C162.349 152.307 164.507 150.945 167.57 149.411L167.604 149.395L167.635 149.376C187.779 137.377 211.879 141.341 221.623 157.7C231.367 174.06 223.375 197.138 203.23 209.137L203.205 209.152L203.182 209.168Z" fill="url(#paint10_linear_513_6950)" stroke="#B1B1BA" stroke-width="2"/>
<path d="M261.766 126.849L261.362 127.619C253.277 143.019 240.58 155.506 225.047 163.333" stroke="#B1B1BA" stroke-width="2"/>
<path d="M256.24 117.089L255.57 118.375C247.626 133.627 235.148 146.041 219.855 153.906" stroke="#B1B1BA" stroke-width="2"/>
<path d="M138.802 162.247L144.734 158.713L149.588 155.822" stroke="#B1B1BA" stroke-width="2"/>
<path d="M187.268 223.76C174.291 231.017 165 231.404 157.616 227.886C150.13 224.319 144.346 216.636 138.672 207.11C133.024 197.627 129.093 187.805 129.571 178.972C129.808 174.579 131.136 170.425 133.901 166.651C136.672 162.869 140.922 159.42 147.075 156.504L147.117 156.483L147.158 156.458C162.792 147.147 184.585 154.398 195.737 173.12C206.884 191.835 202.888 214.442 187.268 223.76Z" fill="url(#paint11_linear_513_6950)" stroke="#B1B1BA" stroke-width="2"/>
<path d="M180.24 227.947C173.502 231.961 165.141 231.958 157.002 228.564C148.863 225.169 141.015 218.403 135.436 209.038C129.858 199.673 127.647 189.549 128.538 180.776C129.43 172.003 133.408 164.649 140.147 160.635C146.886 156.622 155.247 156.626 163.386 160.02C171.524 163.414 179.373 170.18 184.951 179.545C190.529 188.91 192.741 199.034 191.85 207.807C190.958 216.58 186.979 223.933 180.24 227.947Z" fill="url(#paint12_linear_513_6950)" stroke="#B1B1BA" stroke-width="2"/>
<path d="M167.598 207.536L135.057 226.919C132.708 228.318 129.669 227.548 128.27 225.199C126.871 222.85 127.641 219.811 129.99 218.412L162.531 199.029C164.88 197.63 167.919 198.4 169.318 200.749C170.717 203.098 169.947 206.137 167.598 207.536Z" fill="#F1F3FF" stroke="#B1B1BA" stroke-width="2"/>
<path d="M153.937 186.772L121.396 206.154C119.047 207.553 116.008 206.783 114.609 204.434C113.21 202.085 113.981 199.047 116.33 197.648L148.87 178.265C151.219 176.866 154.258 177.636 155.657 179.984C157.057 182.333 156.286 185.373 153.937 186.772Z" fill="#F1F3FF" stroke="#B1B1BA" stroke-width="2"/>
<defs>
<linearGradient id="paint0_linear_513_6950" x1="55.1899" y1="89.0676" x2="67.2114" y2="89.0676" gradientUnits="userSpaceOnUse">
<stop stop-color="#005DFF"/>
<stop offset="1" stop-color="#5F5CA4"/>
</linearGradient>
<linearGradient id="paint1_linear_513_6950" x1="205.458" y1="65.298" x2="227.861" y2="65.298" gradientUnits="userSpaceOnUse">
<stop stop-color="#005DFF"/>
<stop offset="1" stop-color="#5F5CA4"/>
</linearGradient>
<linearGradient id="paint2_linear_513_6950" x1="52.4575" y1="215.566" x2="73.7682" y2="215.566" gradientUnits="userSpaceOnUse">
<stop stop-color="#005DFF"/>
<stop offset="1" stop-color="#5F5CA4"/>
</linearGradient>
<linearGradient id="paint3_linear_513_6950" x1="243.161" y1="205.184" x2="264.472" y2="205.184" gradientUnits="userSpaceOnUse">
<stop stop-color="#005DFF"/>
<stop offset="1" stop-color="#5F5CA4"/>
</linearGradient>
<linearGradient id="paint4_linear_513_6950" x1="227.861" y1="217.205" x2="238.243" y2="217.205" gradientUnits="userSpaceOnUse">
<stop stop-color="#005DFF"/>
<stop offset="1" stop-color="#5F5CA4"/>
</linearGradient>
<linearGradient id="paint5_linear_513_6950" x1="249.355" y1="181.909" x2="268.287" y2="181.909" gradientUnits="userSpaceOnUse">
<stop stop-color="#005DFF"/>
<stop offset="1" stop-color="#5F5CA4"/>
</linearGradient>
<linearGradient id="paint6_linear_513_6950" x1="67.4054" y1="122.854" x2="109.479" y2="144.1" gradientUnits="userSpaceOnUse">
<stop stop-color="#005DFF"/>
<stop offset="1" stop-color="#5F5CA4"/>
</linearGradient>
<linearGradient id="paint7_linear_513_6950" x1="87.5369" y1="133.361" x2="133.566" y2="156.604" gradientUnits="userSpaceOnUse">
<stop stop-color="#005DFF"/>
<stop offset="1" stop-color="#5F5CA4"/>
</linearGradient>
<linearGradient id="paint8_linear_513_6950" x1="95.1329" y1="147.673" x2="136.922" y2="147.673" gradientUnits="userSpaceOnUse">
<stop stop-color="#005DFF"/>
<stop offset="1" stop-color="#5F5CA4"/>
</linearGradient>
<linearGradient id="paint9_linear_513_6950" x1="95.9837" y1="137.626" x2="136.1" y2="157.884" gradientUnits="userSpaceOnUse">
<stop stop-color="#005DFF"/>
<stop offset="1" stop-color="#5F5CA4"/>
</linearGradient>
<linearGradient id="paint10_linear_513_6950" x1="222.469" y1="157.167" x2="173.997" y2="186.039" gradientUnits="userSpaceOnUse">
<stop stop-color="#005DFF"/>
<stop offset="1" stop-color="#5F5CA4"/>
</linearGradient>
<linearGradient id="paint11_linear_513_6950" x1="196.538" y1="172.511" x2="137.755" y2="207.524" gradientUnits="userSpaceOnUse">
<stop stop-color="#005DFF"/>
<stop offset="1" stop-color="#5F5CA4"/>
</linearGradient>
<linearGradient id="paint12_linear_513_6950" x1="185.81" y1="179.033" x2="134.577" y2="209.55" gradientUnits="userSpaceOnUse">
<stop stop-color="#005DFF"/>
<stop offset="1" stop-color="#5F5CA4"/>
</linearGradient>
</defs>
</svg>
