<svg width="306" height="306" viewBox="0 0 306 306" fill="none" xmlns="http://www.w3.org/2000/svg">
<circle cx="152.18" cy="163.656" r="95.8982" fill="#F1F3FF"/>
<circle cx="62.2929" cy="98.9038" r="6.01071" fill="#F1F3FF"/>
<circle cx="217.752" cy="75.1342" r="11.2018" fill="#F1F3FF"/>
<circle cx="64.2057" cy="225.402" r="10.6554" fill="#F1F3FF"/>
<circle cx="254.909" cy="215.02" r="10.6554" fill="#F1F3FF"/>
<circle cx="234.145" cy="227.041" r="5.19107" fill="#F1F3FF"/>
<path d="M165.309 49.4723C164.992 49.4049 164.992 48.9528 165.309 48.8854L170.098 47.8669C170.214 47.8423 170.304 47.7523 170.329 47.637L171.361 42.8809C171.429 42.5657 171.879 42.5657 171.947 42.8809L172.978 47.637C173.003 47.7523 173.094 47.8423 173.209 47.8669L177.999 48.8854C178.316 48.9528 178.316 49.4049 177.999 49.4723L173.209 50.4909C173.094 50.5154 173.003 50.6054 172.978 50.7207L171.947 55.4768C171.879 55.792 171.429 55.792 171.361 55.4768L170.329 50.7207C170.304 50.6054 170.214 50.5154 170.098 50.4909L165.309 49.4723Z" fill="#C4CBF5"/>
<path d="M180.99 238.583C181.112 238.005 181.937 238.005 182.059 238.583L183.886 247.212C183.93 247.423 184.094 247.587 184.304 247.633L192.844 249.494C193.418 249.619 193.418 250.437 192.844 250.562L184.304 252.422C184.094 252.468 183.93 252.632 183.886 252.843L182.059 261.472C181.937 262.05 181.112 262.05 180.99 261.472L179.163 252.843C179.119 252.632 178.955 252.468 178.745 252.422L170.205 250.562C169.631 250.437 169.631 249.619 170.205 249.494L178.745 247.633C178.955 247.587 179.119 247.423 179.163 247.212L180.99 238.583Z" fill="#C4CBF5"/>
<path d="M254.278 97.6044C254.4 97.0267 255.225 97.0267 255.347 97.6044L256.413 102.639C256.457 102.849 256.621 103.014 256.831 103.059L261.827 104.148C262.401 104.273 262.401 105.091 261.827 105.216L256.831 106.304C256.621 106.35 256.457 106.515 256.413 106.725L255.347 111.759C255.225 112.337 254.4 112.337 254.278 111.759L253.212 106.725C253.168 106.515 253.004 106.35 252.794 106.304L247.797 105.216C247.224 105.091 247.224 104.273 247.797 104.148L252.794 103.059C253.004 103.014 253.168 102.849 253.212 102.639L254.278 97.6044Z" fill="#C4CBF5"/>
<path d="M259.914 182.142L261.587 190.047L269.379 191.745L261.587 193.442L259.914 201.348L258.24 193.442L250.448 191.745L258.24 190.047L259.914 182.142Z" fill="white"/>
<path d="M51.1328 150.093C53.2985 149.397 55.1796 149.216 56.8033 149.398L56.8304 149.401L56.8577 149.404C58.6364 149.565 60.094 150.026 61.3174 150.826C62.7022 151.731 63.6524 152.803 64.1317 154.062L64.1357 154.072L64.1398 154.081C70.327 168.091 76.3874 179.089 82.327 187.061L82.9843 187.944L109.24 179.506L108.618 178.995C101.38 173.047 95.0227 167.22 89.5445 161.515C87.6166 159.473 86.9081 157.763 87.2781 156.354L87.2803 156.344L87.2824 156.336C87.5626 154.909 89.1708 153.674 92.3341 152.658C94.8745 151.841 97.0863 151.603 98.9944 151.792C100.855 151.977 102.704 152.598 104.554 153.808C105.718 154.568 106.439 155.141 106.796 155.542L106.815 155.563L106.836 155.584C112.756 161.288 119.206 167.134 126.183 173.121L126.979 173.805L133.71 171.641C136.358 170.79 138.664 170.534 140.65 170.724C142.585 170.908 144.49 171.543 146.382 172.781C149.542 174.847 150.507 176.45 149.845 177.697C149.136 179.03 146.733 180.424 142.319 181.843L138.156 183.181L138.864 183.708L145.518 188.669L145.525 188.675C149.394 191.507 150.915 193.505 150.658 194.789L150.655 194.807C150.486 196.064 148.754 197.322 145 198.528C142.444 199.35 140.001 199.471 137.606 199.029C135.147 198.575 132.467 197.478 129.583 195.593C128.592 194.944 127.92 194.454 127.53 194.11L127.508 194.091L127.484 194.073L121.537 189.421L120.722 188.784L119.668 189.123C104.567 193.976 93.0693 197.626 85.1731 200.075L85.161 200.079C83.2034 200.708 80.6537 200.778 77.3418 200.2C74.0993 199.634 71.0898 198.481 68.3134 196.665C66.6794 195.597 65.2822 194.349 64.1339 192.915C57.0313 183.822 50.6013 172.937 44.8532 160.255C43.6448 157.561 43.4255 155.566 44.0644 154.215L44.0669 154.21C44.6946 152.824 46.9479 151.438 51.1328 150.093Z" fill="#C4CBF5" stroke="#C4CBF5" stroke-width="2"/>
<path d="M193.916 127.379C195.207 126.964 196.257 126.879 197.094 126.973L197.121 126.976L197.149 126.978C198.101 127.065 198.866 127.305 199.53 127.739C200.32 128.256 200.874 128.875 201.157 129.618L201.161 129.628L201.166 129.637C204.993 138.302 208.745 145.115 212.43 150.06L213.088 150.944L230.157 145.458L229.535 144.947C225.071 141.278 221.15 137.686 217.773 134.169L217.774 134.169C216.612 132.938 216.209 131.932 216.422 131.118L216.424 131.109L216.427 131.1C216.585 130.292 217.496 129.571 219.387 128.964C220.913 128.473 222.172 128.353 223.189 128.454C224.159 128.55 225.177 128.876 226.258 129.583C226.967 130.046 227.378 130.377 227.57 130.593L227.589 130.614L227.611 130.635C231.275 134.166 235.267 137.784 239.584 141.489L240.381 142.173L244.965 140.699C246.559 140.187 247.878 140.057 248.945 140.159C249.959 140.255 251.01 140.589 252.115 141.312C254.017 142.555 254.507 143.458 254.15 144.129C253.748 144.887 252.353 145.719 249.649 146.588L246.738 147.523L247.445 148.051L251.558 151.117L251.566 151.123C253.946 152.866 254.781 154.027 254.64 154.728L254.639 154.737L254.637 154.746C254.544 155.433 253.589 156.169 251.306 156.903C249.804 157.386 248.433 157.439 247.132 157.198C245.768 156.946 244.204 156.323 242.457 155.18C241.85 154.784 241.455 154.494 241.235 154.299L241.214 154.281L241.191 154.263L237.514 151.387L236.699 150.749L235.645 151.088C228.644 153.338 222.897 155.169 218.403 156.583L214.326 157.857L214.313 157.861C213.23 158.209 211.805 158.259 209.869 157.921C208.001 157.595 206.239 156.927 204.581 155.843C203.611 155.209 202.775 154.464 202.082 153.599C197.705 147.995 193.738 141.28 190.188 133.45C189.448 131.798 189.327 130.606 189.7 129.817L189.702 129.812C190.059 129.024 191.362 128.2 193.916 127.379Z" fill="#C4CBF5" stroke="#C4CBF5" stroke-width="2"/>
<path d="M137.284 142.39C139.31 138.325 144.406 136.001 151.453 135.851C158.447 135.703 167.078 137.724 175.654 141.998C184.231 146.272 191.041 151.947 195.133 157.621C199.257 163.337 200.469 168.805 198.443 172.87C196.417 176.935 191.321 179.259 184.275 179.409C177.281 179.557 168.649 177.536 160.073 173.262C151.497 168.988 144.687 163.313 140.594 157.639C136.471 151.923 135.258 146.455 137.284 142.39Z" fill="#DDE2FF" stroke="#C4CBF5" stroke-width="2"/>
<path d="M133.928 123.899L151.361 167.481L154.366 169.666L159.011 172.398L163.109 174.038L143.434 123.099C143.272 122.678 142.867 122.4 142.415 122.4L134.943 122.4C134.17 122.4 133.641 123.181 133.928 123.899Z" fill="#DDE2FF" stroke="#C4CBF5" stroke-width="2"/>
<path d="M153.49 114.265L179.385 178.936C179.457 179.117 179.621 179.246 179.815 179.273L181.376 179.496C181.402 179.5 181.427 179.502 181.453 179.502L185.239 179.502L187.383 179.234C187.411 179.23 187.439 179.225 187.466 179.217L189.338 178.682L190.749 178.077C191.026 177.959 191.155 177.638 191.037 177.361L163.854 113.394C163.765 113.184 163.554 113.051 163.325 113.062L153.971 113.516C153.596 113.534 153.351 113.916 153.49 114.265Z" fill="#DDE2FF" stroke="#C4CBF5" stroke-width="2"/>
<path d="M162.353 126.297C163.223 126.017 164.155 126.496 164.434 127.366C164.713 128.236 164.234 129.168 163.364 129.447L148.52 134.209L147.51 131.059L162.353 126.297Z" fill="#C4CBF5" stroke="#C4CBF5" stroke-width="2"/>
<path d="M168.244 141.345C169.099 141.022 170.054 141.453 170.377 142.307C170.699 143.162 170.268 144.117 169.414 144.44L154.832 149.951L153.662 146.856L168.244 141.345Z" fill="#C4CBF5" stroke="#C4CBF5" stroke-width="2"/>
<path d="M172.893 156.662C173.737 156.313 174.705 156.715 175.053 157.56C175.402 158.404 175 159.372 174.156 159.72L161.288 165.035L160.025 161.977L172.893 156.662Z" fill="#C4CBF5" stroke="#C4CBF5" stroke-width="2"/>
</svg>
