<svg width="306" height="306" viewBox="0 0 306 306" fill="none" xmlns="http://www.w3.org/2000/svg">
<circle cx="151.634" cy="168.57" r="95.8982" fill="#F1F3FF"/>
<circle cx="61.7466" cy="103.818" r="6.01071" fill="#F1F3FF"/>
<circle cx="217.205" cy="80.0477" r="11.2018" fill="#F1F3FF"/>
<circle cx="63.6588" cy="230.316" r="10.6554" fill="#F1F3FF"/>
<circle cx="254.362" cy="219.933" r="10.6554" fill="#F1F3FF"/>
<circle cx="233.598" cy="231.955" r="5.19107" fill="#F1F3FF"/>
<path d="M167.639 87.7184C167.322 87.651 167.322 87.1989 167.639 87.1315L172.429 86.1129C172.544 86.0884 172.634 85.9984 172.659 85.8831L173.691 81.127C173.759 80.8118 174.209 80.8118 174.277 81.127L175.308 85.8831C175.333 85.9984 175.424 86.0884 175.539 86.1129L180.329 87.1315C180.646 87.1989 180.646 87.651 180.329 87.7184L175.539 88.737C175.424 88.7615 175.333 88.8515 175.308 88.9668L174.277 93.7229C174.209 94.0381 173.759 94.0381 173.691 93.7229L172.659 88.9668C172.634 88.8515 172.544 88.7615 172.429 88.737L167.639 87.7184Z" fill="#C4CBF5"/>
<path d="M50.9397 172.461C51.062 171.883 51.8866 171.883 52.0089 172.461L53.8355 181.091C53.88 181.301 54.0437 181.466 54.2537 181.511L62.7942 183.372C63.3676 183.497 63.3676 184.315 62.7942 184.44L54.2537 186.3C54.0437 186.346 53.88 186.511 53.8355 186.721L52.0089 195.35C51.8866 195.928 51.062 195.928 50.9397 195.35L49.1131 186.721C49.0686 186.511 48.9049 186.346 48.6948 186.3L40.1544 184.44C39.5809 184.315 39.5809 183.497 40.1544 183.372L48.6948 181.511C48.9049 181.466 49.0686 181.301 49.1131 181.091L50.9397 172.461Z" fill="#C4CBF5"/>
<path d="M92.0493 58.7748C92.1172 58.4539 92.5753 58.4539 92.6433 58.7748L93.658 63.5688C93.6827 63.6856 93.7737 63.7771 93.8904 63.8025L98.6348 64.8361C98.9534 64.9055 98.9534 65.3599 98.6348 65.4293L93.8904 66.4629C93.7737 66.4883 93.6827 66.5798 93.658 66.6966L92.6433 71.4905C92.5753 71.8115 92.1172 71.8115 92.0493 71.4905L91.0346 66.6966C91.0099 66.5798 90.9189 66.4883 90.8022 66.4629L86.0578 65.4293C85.7392 65.3599 85.7392 64.9055 86.0578 64.8361L90.8022 63.8025C90.9189 63.7771 91.0099 63.6856 91.0346 63.5688L92.0493 58.7748Z" fill="#C4CBF5"/>
<path d="M237.338 106.343C237.461 105.765 238.285 105.765 238.408 106.343L239.473 111.377C239.518 111.588 239.681 111.752 239.891 111.798L244.888 112.886C245.461 113.011 245.461 113.829 244.888 113.954L239.891 115.043C239.681 115.089 239.518 115.253 239.473 115.464L238.408 120.498C238.285 121.075 237.461 121.075 237.338 120.498L236.273 115.464C236.228 115.253 236.065 115.089 235.855 115.043L230.858 113.954C230.285 113.829 230.285 113.011 230.858 112.886L235.855 111.798C236.065 111.752 236.228 111.588 236.273 111.377L237.338 106.343Z" fill="#C4CBF5"/>
<path d="M259.367 187.056L261.04 194.961L268.832 196.659L261.04 198.356L259.367 206.262L257.693 198.356L249.901 196.659L257.693 194.961L259.367 187.056Z" fill="white"/>
<path d="M125.739 66.3564C132.687 64.4733 139.681 68.3087 141.438 74.7914C143.195 81.2741 139.095 88.1163 132.148 89.9994C125.2 91.8825 118.206 88.0471 116.449 81.5644C114.692 75.0816 118.792 68.2395 125.739 66.3564Z" fill="#C4CBF5" stroke="#C4CBF5" stroke-width="2"/>
<path d="M124.74 78.2378L128.826 76.585L136.446 74.5197C142.241 72.949 148.323 72.7527 154.207 73.9467C156.393 74.3903 158.537 75.0226 160.614 75.8367L168.331 78.8615L172.936 81.3448C176.427 83.2276 179.681 85.5206 182.628 88.1752C186.019 91.229 188.974 94.7343 191.41 98.5927L195.816 105.57L204.473 124.198L210.446 137.36L219.891 152.978L227.207 165.178L232.8 173.204C234.51 175.658 237.068 177.391 239.982 178.07C242.178 178.581 244.187 179.696 245.783 181.289L248.545 184.045C248.922 184.42 249.262 184.831 249.561 185.27C251.332 187.87 251.511 191.238 250.028 194.012L249.84 194.363C248.855 196.205 247.266 197.652 245.341 198.462L232.303 203.947L212.538 210.902L177.718 221.201L157.866 226.582L130.001 233.273L105.135 238.415L91.3265 240.276C88.9443 240.598 86.5519 239.763 84.8863 238.03C83.377 236.459 82.6212 234.312 82.8137 232.143L83.0389 229.604C83.2698 227.002 84.5583 224.608 86.6034 222.983C88.6151 221.383 89.8962 219.04 90.1562 216.483L91.416 204.095L91.416 187.8L89.3506 165.388L88.2531 149.505L87.68 142.717C87.3373 138.657 87.3259 134.575 87.6457 130.514L87.7952 128.615C88.1561 124.032 89.0529 119.507 90.467 115.132C91.7341 111.213 93.4091 107.438 95.4647 103.868L96.0591 102.836C98.0484 99.3812 100.403 96.1507 103.083 93.1998C105.842 90.1623 108.928 87.4395 112.286 85.0811L112.706 84.7861C116.455 82.1527 120.492 79.9557 124.74 78.2378Z" fill="#DDE2FF"/>
<path d="M124.735 78.2202L128.821 76.5674L136.441 74.5021C142.236 72.9314 148.318 72.7352 154.202 73.9291C156.389 74.3727 158.532 75.0051 160.609 75.8191L168.326 78.8439L172.931 81.3272C176.422 83.21 179.676 85.503 182.623 88.1576C186.014 91.2115 188.969 94.7167 191.405 98.5751L195.811 105.552L204.468 124.18L210.441 137.343L219.886 152.961L227.202 165.16L232.172 171.961C234.365 174.962 237.587 177.048 241.222 177.821L241.554 177.891C243.877 178.385 246.034 179.471 247.816 181.043L248.858 181.963C250.27 183.208 251.271 184.852 251.73 186.677C252.19 188.504 252.086 190.428 251.43 192.194L251.384 192.318C251.145 192.962 250.839 193.579 250.471 194.158L250.282 194.455C249.061 196.375 247.359 197.942 245.347 199.003L241.935 200.8L235.451 204.215L217.272 212.411L204.977 217.329L194.322 221.427L185.306 224.433L176.017 227.711L168.093 229.897L162.629 231.263L147.875 234.269L133.942 237.001L107.713 240.77L99.6952 241.657C98.1241 241.831 96.5382 241.826 94.9682 241.642L90.925 241.168C88.731 240.911 86.6945 239.899 85.1639 238.306C83.4583 236.531 82.5058 234.165 82.5058 231.704L82.5058 230.841C82.5058 230.213 82.5565 229.585 82.6575 228.965L82.715 228.613C83.1612 225.873 84.3086 223.295 86.0458 221.13L87.2111 219.678C90.7759 215.235 92.5786 209.634 92.2747 203.946L91.4111 187.782L89.3457 165.371L88.2482 149.488L87.6752 142.699C87.3325 138.639 87.321 134.558 87.6408 130.496L87.7904 128.597C88.1513 124.014 89.048 119.489 90.4621 115.115C91.7292 111.195 93.4043 107.42 95.4598 103.85L96.0542 102.818C98.0435 99.3636 100.398 96.1331 103.078 93.1822C105.837 90.1448 108.923 87.422 112.281 85.0636L112.701 84.7685C116.45 82.1351 120.488 79.9382 124.735 78.2202Z" fill="#F1F3FF" stroke="#C4CBF5" stroke-width="2"/>
<ellipse cx="166.076" cy="211.835" rx="74.6222" ry="13.0487" transform="rotate(-15.4595 166.076 211.835)" fill="#C4CBF5"/>
<path d="M153.877 215.886L153.066 215.019C152.201 214.095 151.462 213.06 150.869 211.941C150.464 211.176 150.129 210.377 149.869 209.552L148.462 205.096L151.762 203.924L155.072 202.695L163.212 200.501L172.381 198.061L177.774 196.889L178.007 197.686C178.788 200.357 179.15 203.133 179.081 205.915L178.891 207.908C178.666 210.264 177.866 212.529 176.56 214.503L176.491 214.608C175.958 215.414 175.338 216.16 174.644 216.832C172.701 218.71 170.232 219.952 167.566 220.392L166.592 220.552C165.762 220.689 164.921 220.748 164.08 220.727C161.323 220.658 158.655 219.739 156.44 218.097L155.941 217.726C155.199 217.176 154.508 216.56 153.877 215.886Z" fill="#DDE2FF" stroke="#C4CBF5" stroke-width="2"/>
</svg>
