<svg width="306" height="306" viewBox="0 0 306 306" fill="none" xmlns="http://www.w3.org/2000/svg">
<circle cx="151.634" cy="168.57" r="95.8982" fill="#171717"/>
<circle cx="61.7466" cy="103.818" r="6.01071" fill="url(#paint0_linear_513_6838)"/>
<circle cx="217.205" cy="80.0477" r="11.2018" fill="url(#paint1_linear_513_6838)"/>
<circle cx="64.2052" cy="230.862" r="11.2018" fill="url(#paint2_linear_513_6838)"/>
<circle cx="254.909" cy="220.48" r="11.2018" fill="url(#paint3_linear_513_6838)"/>
<path d="M167.639 87.7184C167.322 87.651 167.322 87.1989 167.639 87.1315L172.429 86.1129C172.544 86.0884 172.634 85.9984 172.659 85.8831L173.691 81.127C173.759 80.8118 174.209 80.8118 174.277 81.127L175.308 85.8831C175.333 85.9984 175.424 86.0884 175.539 86.1129L180.329 87.1315C180.646 87.1989 180.646 87.651 180.329 87.7184L175.539 88.737C175.424 88.7615 175.333 88.8515 175.308 88.9668L174.277 93.7229C174.209 94.0381 173.759 94.0381 173.691 93.7229L172.659 88.9668C172.634 88.8515 172.544 88.7615 172.429 88.737L167.639 87.7184Z" fill="url(#paint4_linear_513_6838)"/>
<path d="M46.6348 172.461C46.7571 171.883 47.5817 171.883 47.704 172.461L48.7696 177.495C48.8141 177.706 48.9778 177.87 49.1879 177.916L54.1844 179.005C54.7579 179.13 54.7579 179.947 54.1844 180.072L49.1879 181.161C48.9778 181.207 48.8141 181.371 48.7696 181.582L47.704 186.616C47.5817 187.194 46.7571 187.194 46.6348 186.616L45.5692 181.582C45.5247 181.371 45.361 181.207 45.1509 181.161L40.1544 180.072C39.5809 179.947 39.5809 179.13 40.1544 179.005L45.1509 177.916C45.361 177.87 45.5247 177.706 45.5692 177.495L46.6348 172.461Z" fill="#A4A4A4"/>
<path d="M93.6275 59.8974C93.7498 59.3197 94.5744 59.3197 94.6967 59.8974L95.7623 64.9317C95.8068 65.142 95.9705 65.3066 96.1805 65.3524L101.177 66.4409C101.751 66.5658 101.751 67.3838 101.177 67.5087L96.1805 68.5972C95.9705 68.643 95.8068 68.8076 95.7623 69.0179L94.6967 74.0522C94.5744 74.6299 93.7498 74.6299 93.6275 74.0522L92.5619 69.0179C92.5174 68.8076 92.3537 68.643 92.1436 68.5972L87.1471 67.5087C86.5736 67.3838 86.5736 66.5658 87.1471 66.4409L92.1436 65.3524C92.3537 65.3066 92.5174 65.142 92.5619 64.9317L93.6275 59.8974Z" fill="#A4A4A4"/>
<path d="M237.338 106.343C237.461 105.765 238.285 105.765 238.408 106.343L239.473 111.377C239.518 111.588 239.681 111.752 239.891 111.798L244.888 112.886C245.461 113.011 245.461 113.829 244.888 113.954L239.891 115.043C239.681 115.089 239.518 115.253 239.473 115.464L238.408 120.498C238.285 121.075 237.461 121.075 237.338 120.498L236.273 115.464C236.228 115.253 236.065 115.089 235.855 115.043L230.858 113.954C230.285 113.829 230.285 113.011 230.858 112.886L235.855 111.798C236.065 111.752 236.228 111.588 236.273 111.377L237.338 106.343Z" fill="#A4A4A4"/>
<path d="M259.367 187.056L261.04 194.961L268.832 196.659L261.04 198.356L259.367 206.262L257.693 198.356L249.901 196.659L257.693 194.961L259.367 187.056Z" fill="white"/>
<path d="M125.739 66.3564C132.687 64.4733 139.681 68.3087 141.438 74.7914C143.195 81.2741 139.095 88.1163 132.148 89.9994C125.2 91.8825 118.206 88.0471 116.449 81.5644C114.692 75.0816 118.792 68.2395 125.739 66.3564Z" fill="url(#paint5_linear_513_6838)" stroke="url(#paint6_linear_513_6838)" stroke-width="2"/>
<path d="M124.74 78.2378L128.826 76.585L136.446 74.5197C142.241 72.949 148.323 72.7527 154.207 73.9467C156.393 74.3903 158.537 75.0226 160.614 75.8367L168.331 78.8615L172.936 81.3448C176.427 83.2276 179.681 85.5206 182.628 88.1752C186.019 91.229 188.974 94.7343 191.41 98.5927L195.816 105.57L204.473 124.198L210.446 137.36L219.891 152.978L227.207 165.178L232.8 173.204C234.51 175.658 237.068 177.391 239.982 178.07C242.178 178.581 244.187 179.696 245.783 181.289L248.545 184.045C248.922 184.42 249.262 184.831 249.561 185.27C251.332 187.87 251.511 191.238 250.028 194.012L249.84 194.363C248.855 196.205 247.266 197.652 245.341 198.462L232.303 203.947L212.538 210.902L177.718 221.201L157.866 226.582L130.001 233.273L105.135 238.415L91.3265 240.276C88.9443 240.598 86.5519 239.763 84.8863 238.03C83.377 236.459 82.6212 234.312 82.8137 232.143L83.0389 229.604C83.2698 227.002 84.5583 224.608 86.6034 222.983C88.6151 221.383 89.8962 219.04 90.1562 216.483L91.416 204.095L91.416 187.8L89.3506 165.388L88.2531 149.505L87.68 142.717C87.3373 138.657 87.3259 134.575 87.6457 130.514L87.7952 128.615C88.1561 124.032 89.0529 119.507 90.467 115.132C91.7341 111.213 93.4091 107.438 95.4647 103.868L96.0591 102.836C98.0484 99.3812 100.403 96.1507 103.083 93.1998C105.842 90.1623 108.928 87.4395 112.286 85.0811L112.706 84.7861C116.455 82.1527 120.492 79.9557 124.74 78.2378Z" fill="#FAFAFA"/>
<path d="M124.735 78.2202L128.821 76.5674L136.441 74.5021C142.236 72.9314 148.318 72.7352 154.202 73.9291C156.389 74.3727 158.532 75.0051 160.609 75.8191L168.326 78.8439L172.931 81.3272C176.422 83.21 179.676 85.503 182.623 88.1576C186.014 91.2115 188.969 94.7167 191.405 98.5751L195.811 105.552L204.468 124.18L210.441 137.343L219.886 152.961L227.202 165.16L232.172 171.961C234.365 174.962 237.587 177.048 241.222 177.821L241.554 177.891C243.877 178.385 246.034 179.471 247.816 181.043L248.858 181.963C250.27 183.208 251.271 184.852 251.73 186.677C252.19 188.504 252.086 190.428 251.43 192.194L251.384 192.318C251.145 192.962 250.839 193.579 250.471 194.158L250.282 194.455C249.061 196.375 247.359 197.942 245.347 199.003L241.935 200.8L235.451 204.215L217.272 212.411L204.977 217.329L194.322 221.427L185.306 224.433L176.017 227.711L168.093 229.897L162.629 231.263L147.875 234.269L133.942 237.001L107.713 240.77L99.6952 241.657C98.1241 241.831 96.5382 241.826 94.9682 241.642L90.925 241.168C88.731 240.911 86.6945 239.899 85.1639 238.306C83.4583 236.531 82.5058 234.165 82.5058 231.704L82.5058 230.841C82.5058 230.213 82.5565 229.585 82.6575 228.965L82.715 228.613C83.1612 225.873 84.3086 223.295 86.0458 221.13L87.2111 219.678C90.7759 215.235 92.5786 209.634 92.2747 203.946L91.4111 187.782L89.3457 165.371L88.2482 149.488L87.6752 142.699C87.3325 138.639 87.321 134.558 87.6408 130.496L87.7904 128.597C88.1513 124.014 89.048 119.489 90.4621 115.115C91.7292 111.195 93.4043 107.42 95.4598 103.85L96.0542 102.818C98.0435 99.3636 100.398 96.1331 103.078 93.1822C105.837 90.1448 108.923 87.422 112.281 85.0636L112.701 84.7685C116.45 82.1351 120.488 79.9382 124.735 78.2202Z" fill="#191995" stroke="url(#paint7_linear_513_6838)" stroke-width="2"/>
<ellipse cx="166.076" cy="211.835" rx="74.6222" ry="13.0487" transform="rotate(-15.4595 166.076 211.835)" fill="url(#paint8_linear_513_6838)"/>
<path d="M153.877 215.886L153.066 215.019C152.201 214.095 151.462 213.06 150.869 211.941C150.464 211.176 150.129 210.377 149.869 209.552L148.462 205.096L151.762 203.924L155.072 202.695L163.212 200.501L172.381 198.061L177.774 196.889L178.007 197.686C178.788 200.357 179.15 203.133 179.081 205.915L178.891 207.908C178.666 210.264 177.866 212.529 176.56 214.503L176.491 214.608C175.958 215.414 175.338 216.16 174.644 216.832C172.701 218.71 170.232 219.952 167.566 220.392L166.592 220.552C165.762 220.689 164.921 220.748 164.08 220.727C161.323 220.658 158.655 219.739 156.44 218.097L155.941 217.726C155.199 217.176 154.508 216.56 153.877 215.886Z" fill="#FAFAFA" stroke="url(#paint9_linear_513_6838)" stroke-width="2"/>
<defs>
<linearGradient id="paint0_linear_513_6838" x1="55.7358" y1="103.818" x2="67.7573" y2="103.818" gradientUnits="userSpaceOnUse">
<stop stop-color="#005DFF"/>
<stop offset="1" stop-color="#5F5CA4"/>
</linearGradient>
<linearGradient id="paint1_linear_513_6838" x1="206.003" y1="80.0477" x2="228.407" y2="80.0477" gradientUnits="userSpaceOnUse">
<stop stop-color="#005DFF"/>
<stop offset="1" stop-color="#5F5CA4"/>
</linearGradient>
<linearGradient id="paint2_linear_513_6838" x1="53.0034" y1="230.862" x2="75.407" y2="230.862" gradientUnits="userSpaceOnUse">
<stop stop-color="#005DFF"/>
<stop offset="1" stop-color="#5F5CA4"/>
</linearGradient>
<linearGradient id="paint3_linear_513_6838" x1="243.707" y1="220.48" x2="266.111" y2="220.48" gradientUnits="userSpaceOnUse">
<stop stop-color="#005DFF"/>
<stop offset="1" stop-color="#5F5CA4"/>
</linearGradient>
<linearGradient id="paint4_linear_513_6838" x1="173.984" y1="95.075" x2="173.984" y2="79.775" gradientUnits="userSpaceOnUse">
<stop stop-color="#005DFF"/>
<stop offset="1" stop-color="#5F5CA4"/>
</linearGradient>
<linearGradient id="paint5_linear_513_6838" x1="115.484" y1="81.8259" x2="142.403" y2="74.5298" gradientUnits="userSpaceOnUse">
<stop stop-color="#005DFF"/>
<stop offset="1" stop-color="#5F5CA4"/>
</linearGradient>
<linearGradient id="paint6_linear_513_6838" x1="115.484" y1="81.8259" x2="142.403" y2="74.5298" gradientUnits="userSpaceOnUse">
<stop stop-color="#005DFF"/>
<stop offset="1" stop-color="#5F5CA4"/>
</linearGradient>
<linearGradient id="paint7_linear_513_6838" x1="66.2371" y1="175.517" x2="236.269" y2="129.432" gradientUnits="userSpaceOnUse">
<stop stop-color="#005DFF"/>
<stop offset="1" stop-color="#5F5CA4"/>
</linearGradient>
<linearGradient id="paint8_linear_513_6838" x1="91.4541" y1="211.835" x2="240.699" y2="211.835" gradientUnits="userSpaceOnUse">
<stop stop-color="#005DFF"/>
<stop offset="1" stop-color="#5F5CA4"/>
</linearGradient>
<linearGradient id="paint9_linear_513_6838" x1="148.383" y1="208.246" x2="179.004" y2="209.009" gradientUnits="userSpaceOnUse">
<stop stop-color="#005DFF"/>
<stop offset="1" stop-color="#5F5CA4"/>
</linearGradient>
</defs>
</svg>
