<svg width="306" height="306" viewBox="0 0 306 306" fill="none" xmlns="http://www.w3.org/2000/svg">
<circle cx="157.645" cy="162.563" r="95.8982" fill="#F1F3FF"/>
<circle cx="67.7578" cy="97.8108" r="6.01071" fill="#F1F3FF"/>
<circle cx="111.199" cy="59.2875" r="11.2018" fill="#F1F3FF"/>
<circle cx="69.67" cy="224.309" r="10.6554" fill="#F1F3FF"/>
<circle cx="260.374" cy="213.927" r="10.6554" fill="#F1F3FF"/>
<circle cx="239.61" cy="225.948" r="5.19107" fill="#F1F3FF"/>
<path d="M155.473 78.4327C155.156 78.3654 155.156 77.9132 155.473 77.8459L160.263 76.8273C160.378 76.8028 160.469 76.7128 160.494 76.5974L161.525 71.8414C161.593 71.5261 162.043 71.5261 162.111 71.8414L163.143 76.5974C163.168 76.7128 163.258 76.8028 163.374 76.8273L168.163 77.8459C168.48 77.9132 168.48 78.3654 168.163 78.4327L163.374 79.4513C163.258 79.4759 163.168 79.5658 163.143 79.6812L162.111 84.4372C162.043 84.7525 161.593 84.7525 161.525 84.4372L160.494 79.6812C160.469 79.5658 160.378 79.4759 160.263 79.4513L155.473 78.4327Z" fill="#C4CBF5"/>
<path d="M44.9294 125.472C45.0517 124.894 45.8763 124.894 45.9986 125.472L47.8252 134.101C47.8697 134.312 48.0334 134.476 48.2435 134.522L56.7839 136.383C57.3574 136.508 57.3574 137.326 56.7839 137.45L48.2435 139.311C48.0334 139.357 47.8697 139.521 47.8252 139.732L45.9986 148.361C45.8763 148.939 45.0517 148.939 44.9294 148.361L43.1028 139.732C43.0583 139.521 42.8946 139.357 42.6846 139.311L34.1442 137.45C33.5707 137.326 33.5707 136.508 34.1442 136.383L42.6846 134.522C42.8946 134.476 43.0583 134.312 43.1028 134.101L44.9294 125.472Z" fill="#C4CBF5"/>
<path d="M243.35 152.793C243.472 152.216 244.297 152.216 244.419 152.793L245.484 157.828C245.529 158.038 245.693 158.203 245.903 158.248L250.899 159.337C251.473 159.462 251.473 160.28 250.899 160.405L245.903 161.493C245.693 161.539 245.529 161.704 245.484 161.914L244.419 166.948C244.297 167.526 243.472 167.526 243.35 166.948L242.284 161.914C242.24 161.704 242.076 161.539 241.866 161.493L236.869 160.405C236.296 160.28 236.296 159.462 236.869 159.337L241.866 158.248C242.076 158.203 242.24 158.038 242.284 157.828L243.35 152.793Z" fill="#C4CBF5"/>
<path d="M265.378 181.048L267.052 188.954L274.844 190.651L267.052 192.349L265.378 200.254L263.705 192.349L255.913 190.651L263.705 188.954L265.378 181.048Z" fill="white"/>
<path d="M230.32 84.6963L115.843 205.457L128.957 257.094L137.973 213.653L230.32 84.6963Z" fill="#DDE2FF"/>
<path d="M115.296 204.911L128.684 258.187L137.154 213.927" stroke="#C4CBF5" stroke-width="2.18571"/>
<path d="M128.411 257.095L162.836 224.582" stroke="#C4CBF5" stroke-width="2.18571"/>
<path d="M230.319 84.6963L137.7 213.38L210.375 245.893L230.319 84.6963Z" fill="#F1F3FF" stroke="#C4CBF5" stroke-width="2.18571"/>
<path d="M230.32 83.6035L59.0142 180.868L115.296 204.911L230.32 83.6035Z" fill="#F1F3FF" stroke="#C4CBF5" stroke-width="2.18571"/>
<path d="M164.475 225.685L138.086 214.2L128.411 258.461L164.475 225.685Z" fill="#C4CBF5"/>
</svg>
