<svg width="1122" height="1122" viewBox="0 0 1122 1122" fill="none"
	xmlns="http://www.w3.org/2000/svg">
	<path
		d="M1030.87 464.342C1036.69 458.53 1040 450.498 1040 442.283V177.174C1040 168.966 1036.69 160.939 1030.87 155.127C1025.06 149.315 1017.05 145.988 1008.82 145.988H519.541V33.3585C519.541 21.6128 512.889 10.7993 502.411 5.51372C491.942 0.222496 479.297 1.28908 469.849 8.26638L96.4454 283.78C88.4886 289.656 83.7885 298.926 83.7885 308.826C83.7885 318.721 88.4318 328.008 96.3999 333.913L251.986 449.437C245.589 475.361 242.126 502.425 242.126 530.292C242.126 570.529 249.235 609.134 262.226 644.945H114.964C106.283 644.945 97.7999 648.465 91.6543 654.603C85.5087 660.743 82.002 669.234 82.002 677.924V943.015C82.002 951.724 85.5106 960.202 91.6543 966.359C97.7999 972.482 106.285 976.002 114.964 976.002H565.428V1086.87C565.428 1099.27 572.468 1110.72 583.543 1116.29C594.607 1121.89 607.987 1120.76 617.984 1113.4L991.377 837.892C999.783 831.678 1004.76 821.88 1004.76 811.407C1004.79 800.927 999.849 791.125 991.434 784.875L872.698 696.713C900.697 647.565 916.794 590.79 916.794 530.292C916.794 510.921 915.062 491.964 911.91 473.476H1008.82C1017.05 473.474 1025.06 470.143 1030.87 464.342ZM579.459 831.922C413.152 831.922 277.849 696.601 277.849 530.29C277.849 363.926 413.152 228.641 579.459 228.641C745.775 228.641 881.078 363.926 881.078 530.29C881.078 696.601 745.775 831.922 579.459 831.922Z"
		fill="#616E7D" />
	<path
		d="M542.494 467.391C542.585 478.043 548.433 485.576 559.991 490.046V445.728L557.974 446.531C547.562 451.477 542.437 458.449 542.494 467.391Z"
		fill="#AAD4C8" />
	<path
		d="M615.506 610.06C617.524 609.143 619.532 608.17 621.353 607.01C631.695 600.738 636.899 591.883 637.026 580.452C637.117 568.166 629.836 559.833 615.505 555.314L615.506 610.06Z"
		fill="#AAD4C8" />
	<path
		d="M350.794 530.29C350.794 658.359 454.625 762.212 582.681 762.212C710.783 762.212 814.569 658.358 814.569 530.29C814.569 402.204 710.783 298.363 582.681 298.363C454.623 298.363 350.794 402.206 350.794 530.29ZM615.506 356.492V384.629C644.744 389.714 668.684 402.803 687.234 423.916C689.849 426.324 691.154 429.117 691.109 432.326C691.041 436.31 688.953 439.589 684.895 442.158L655.154 460.83L655.063 460.858C655.063 460.858 649.813 463.524 646.028 463.501C641.328 463.495 637.177 461.982 633.623 459.007C627.821 453.974 621.768 450.03 615.506 447.084V497.073C651.094 502.048 677.27 514.574 694.055 534.593C704.396 547.107 709.36 562.362 709.017 580.304C708.445 609.088 695.718 631.595 670.974 647.967C655.267 658.257 636.76 664.912 615.505 668.084V692.752C615.505 700.742 609.037 707.208 601.046 707.208H574.48C566.501 707.208 559.989 700.742 559.989 692.752V668.112C536.004 664.295 514.38 655.122 495.222 640.389C483.377 631.394 473.907 621.965 466.867 612.137C464.816 609.833 463.772 607.281 463.703 604.415C463.658 600.042 465.882 596.475 470.514 593.793L497.573 577.919L497.664 577.868C497.664 577.868 502.938 575.564 505.597 575.564C510.481 575.564 514.414 577.474 517.337 581.297C530.729 595.812 544.968 605.712 559.989 611.026V548.632C525.181 543.265 500.024 530.224 484.489 509.421C475.248 497.181 470.444 483.126 470.181 467.229C469.584 434.955 487.068 410.591 522.795 394.332C533.848 389.276 546.253 385.79 559.989 383.886V356.492C559.989 348.496 566.503 342.002 574.48 342.002H601.046C609.039 342 615.506 348.496 615.506 356.492Z"
		fill="#AAD4C8" />
</svg>