<svg width="306" height="306" viewBox="0 0 306 306" fill="none" xmlns="http://www.w3.org/2000/svg">
<circle cx="151.634" cy="162.562" r="95.8982" fill="#171717"/>
<circle cx="61.7461" cy="97.8108" r="6.01071" fill="url(#paint0_linear_513_6811)"/>
<circle cx="219.937" cy="58.7408" r="11.2018" fill="url(#paint1_linear_513_6811)"/>
<circle cx="63.6583" cy="224.308" r="10.6554" fill="url(#paint2_linear_513_6811)"/>
<circle cx="254.362" cy="213.927" r="10.6554" fill="url(#paint3_linear_513_6811)"/>
<circle cx="233.598" cy="225.948" r="5.19107" fill="url(#paint4_linear_513_6811)"/>
<path d="M259.367 181.048L261.04 188.954L268.832 190.651L261.04 192.349L259.367 200.254L257.693 192.349L249.901 190.651L257.693 188.954L259.367 181.048Z" fill="url(#paint5_linear_513_6811)"/>
<path d="M249.359 100.337C249.482 99.7589 250.306 99.7589 250.429 100.337L251.494 105.371C251.539 105.581 251.702 105.746 251.912 105.792L256.909 106.88C257.482 107.005 257.482 107.823 256.909 107.948L251.912 109.036C251.702 109.082 251.539 109.247 251.494 109.457L250.429 114.491C250.306 115.069 249.482 115.069 249.359 114.491L248.294 109.457C248.249 109.247 248.086 109.082 247.876 109.036L242.879 107.948C242.306 107.823 242.306 107.005 242.879 106.88L247.876 105.792C248.086 105.746 248.249 105.581 248.294 105.371L249.359 100.337Z" fill="#A4A4A4"/>
<path d="M50.9392 166.454C51.0615 165.876 51.8861 165.876 52.0084 166.454L53.835 175.083C53.8795 175.293 54.0432 175.458 54.2533 175.504L62.7937 177.364C63.3672 177.489 63.3672 178.307 62.7937 178.432L54.2533 180.293C54.0432 180.338 53.8795 180.503 53.835 180.713L52.0084 189.343C51.8861 189.921 51.0615 189.921 50.9392 189.343L49.1126 180.713C49.0681 180.503 48.9044 180.338 48.6943 180.293L40.1539 178.432C39.5804 178.307 39.5804 177.489 40.1539 177.364L48.6943 175.504C48.9044 175.458 49.0681 175.293 49.1126 175.083L50.9392 166.454Z" fill="#A4A4A4"/>
<path d="M84.9829 74.6075C84.6661 74.5402 84.6661 74.088 84.9829 74.0207L89.7727 73.0021C89.8882 72.9776 89.9785 72.8876 90.0035 72.7722L91.0348 68.0162C91.1032 67.7009 91.5529 67.7009 91.6212 68.0162L92.6525 72.7722C92.6775 72.8876 92.7679 72.9776 92.8833 73.0021L97.6731 74.0207C97.9899 74.088 97.9899 74.5402 97.6731 74.6075L92.8833 75.6261C92.7679 75.6507 92.6775 75.7406 92.6525 75.856L91.6212 80.612C91.5529 80.9273 91.1032 80.9273 91.0348 80.612L90.0035 75.856C89.9785 75.7406 89.8882 75.6507 89.7727 75.6261L84.9829 74.6075Z" fill="#A4A4A4"/>
<circle cx="171.578" cy="127.319" r="60.7464" fill="#B1B1BA" stroke="#A4A4A4" stroke-width="2"/>
<circle cx="171.578" cy="127.318" r="50.9107" fill="#171717" stroke="#A4A4A4" stroke-width="2"/>
<path d="M92.4795 239.679L125.261 194.149L126.718 193.056L129.996 192.327H134.731L137.281 194.149L139.831 195.241L142.016 197.791L143.837 201.798L115.427 255.341L112.148 257.162H108.142L102.678 255.341L98.3073 253.52L94.3007 248.056L92.4795 245.871V239.679Z" fill="#A4A4A4"/>
<path d="M150.029 184.314L141.719 197.791" stroke="#A4A4A4" stroke-width="2"/>
<path d="M140.262 179.943L132.249 191.963" stroke="#A4A4A4" stroke-width="2"/>
<path d="M127.447 192.327L92.1152 240.771" stroke="#A4A4A4" stroke-width="2"/>
<path d="M143.474 201.069L115.063 256.069" stroke="#A4A4A4" stroke-width="2"/>
<path d="M126.718 193.056L127.317 192.722C128.629 191.992 130.136 191.69 131.628 191.859C132.237 191.928 132.835 192.075 133.407 192.295L134.434 192.692L134.78 192.807C136.708 193.45 138.46 194.533 139.897 195.97L141.027 197.099C141.486 197.559 141.887 198.073 142.222 198.63C142.613 199.281 142.908 199.986 143.099 200.721L143.473 202.162" stroke="#A4A4A4" stroke-width="2"/>
<path d="M115.791 255.341L114.239 256.038C112.737 256.714 111.116 257.089 109.469 257.141C108.19 257.181 106.912 257.026 105.679 256.681L104.635 256.388L104.284 256.269C101.188 255.219 98.3675 253.484 96.0336 251.194L94.6843 249.87C93.6293 248.834 92.8386 247.561 92.379 246.156C91.8071 244.409 91.7708 242.53 92.2745 240.762L92.4795 240.042" stroke="#A4A4A4" stroke-width="2"/>
<defs>
<linearGradient id="paint0_linear_513_6811" x1="55.7354" y1="97.8108" x2="67.7568" y2="97.8108" gradientUnits="userSpaceOnUse">
<stop stop-color="#005DFF"/>
<stop offset="1" stop-color="#5F5CA4"/>
</linearGradient>
<linearGradient id="paint1_linear_513_6811" x1="208.735" y1="58.7408" x2="231.139" y2="58.7408" gradientUnits="userSpaceOnUse">
<stop stop-color="#005DFF"/>
<stop offset="1" stop-color="#5F5CA4"/>
</linearGradient>
<linearGradient id="paint2_linear_513_6811" x1="53.0029" y1="224.308" x2="74.3136" y2="224.308" gradientUnits="userSpaceOnUse">
<stop stop-color="#005DFF"/>
<stop offset="1" stop-color="#5F5CA4"/>
</linearGradient>
<linearGradient id="paint3_linear_513_6811" x1="243.707" y1="213.927" x2="265.018" y2="213.927" gradientUnits="userSpaceOnUse">
<stop stop-color="#005DFF"/>
<stop offset="1" stop-color="#5F5CA4"/>
</linearGradient>
<linearGradient id="paint4_linear_513_6811" x1="228.407" y1="225.948" x2="238.789" y2="225.948" gradientUnits="userSpaceOnUse">
<stop stop-color="#005DFF"/>
<stop offset="1" stop-color="#5F5CA4"/>
</linearGradient>
<linearGradient id="paint5_linear_513_6811" x1="249.901" y1="190.651" x2="268.832" y2="190.651" gradientUnits="userSpaceOnUse">
<stop stop-color="#005DFF"/>
<stop offset="1" stop-color="#5F5CA4"/>
</linearGradient>
</defs>
</svg>
